 <svg version="1.0" xmlns="http://www.w3.org/2000/svg" width="700.000000pt" height="203.000000pt" viewBox="0 0 700.000000 203.000000" preserveAspectRatio="xMidYMid meet">
<metadata>
Created by potrace 1.12, written by Peter Selinger 2001-2015
</metadata>
<g transform="translate(0.000000,203.000000) scale(0.100000,-0.100000)" fill="#000000" stroke="none">
<path d="M6296 1461 c-32 -35 2 -89 42 -65 26 17 23 78 -4 82 -11 2 -28 -6
-38 -17z"></path>
<path d="M3121 1385 c-45 -42 -64 -75 -45 -75 4 0 29 21 56 46 49 46 51 46
106 42 104 -7 332 -144 332 -198 0 -26 -44 -58 -104 -75 -55 -15 -336 -46
-348 -39 -5 3 -8 41 -8 85 0 63 -3 79 -15 79 -11 0 -15 -18 -17 -82 l-3 -83
-57 -3 c-32 -2 -58 -7 -58 -11 0 -5 27 -18 60 -30 l61 -22 -3 -147 c-2 -81 -5
-154 -8 -162 -3 -9 1 -15 10 -15 12 0 22 19 36 72 2 9 18 5 53 -12 27 -14 57
-25 67 -25 11 0 44 -10 74 -21 76 -29 210 -38 245 -15 19 13 25 25 25 53 0 30
-8 44 -45 79 -47 46 -242 146 -345 179 -111 36 -104 50 32 58 240 15 378 63
378 131 0 76 -233 225 -367 234 l-61 4 -51 -47z m70 -410 c37 -13 76 -29 86
-34 10 -6 57 -28 104 -51 137 -64 197 -128 157 -168 -28 -28 -161 -10 -306 41
-122 42 -122 42 -122 147 0 50 3 90 6 90 4 0 37 -11 75 -25z"></path>
<path d="M6500 1342 c0 -136 -31 -201 -120 -248 -28 -15 -57 -19 -140 -19
-111 0 -183 18 -227 58 -21 19 -53 20 -55 2 -1 -5 28 -25 64 -44 60 -30 76
-34 176 -39 127 -6 187 6 243 46 62 44 71 70 77 204 3 84 2 118 -7 118 -7 0
-11 -26 -11 -78z"></path>
<path d="M840 1389 c-99 -15 -214 -46 -218 -59 -5 -15 23 -12 143 15 52 12
124 18 205 19 109 1 129 -2 160 -20 19 -11 39 -32 44 -47 9 -23 6 -31 -23 -61
-54 -55 -134 -76 -297 -76 -103 0 -135 -3 -132 -12 3 -7 18 -15 35 -19 98 -20
221 -164 240 -282 4 -28 1 -37 -18 -51 -13 -9 -36 -16 -51 -16 -52 0 -249 62
-267 84 -7 8 -5 30 5 72 20 75 24 225 7 231 -9 3 -13 -10 -13 -45 0 -45 -24
-209 -35 -240 -6 -17 -125 43 -125 63 0 8 -5 15 -11 15 -6 0 -9 -12 -7 -27 2
-20 16 -33 63 -58 32 -18 61 -38 63 -44 2 -6 -3 -32 -12 -57 -15 -45 -14 -64
4 -64 4 0 17 26 28 58 22 65 30 67 106 32 60 -27 120 -39 192 -40 87 0 98 11
92 93 -7 78 -41 143 -121 225 -41 41 -47 52 -32 52 64 0 205 23 242 40 67 30
93 61 93 114 0 54 -21 78 -88 101 -49 16 -177 19 -272 4z"></path>
<path d="M6060 1365 c-7 -8 -10 -22 -6 -30 7 -20 76 -21 76 -1 0 8 3 21 6 30
5 13 -1 16 -29 16 -19 0 -40 -7 -47 -15z"></path>
<path d="M5160 1305 c-19 -22 -2 -37 33 -29 41 8 51 14 40 24 -18 16 -61 20
-73 5z"></path>
<path d="M1487 1293 c-12 -11 -8 -22 14 -34 31 -16 52 7 25 27 -22 16 -30 17
-39 7z"></path>
<path d="M3821 1143 c-12 -10 -26 -36 -31 -58 -13 -56 -12 -258 2 -371 12 -98
26 -117 40 -52 10 48 71 180 91 197 20 16 22 41 4 41 -21 0 -44 -30 -73 -95
-25 -57 -27 -59 -36 -35 -5 14 -8 92 -6 173 l3 149 29 25 c39 33 87 28 236
-25 105 -37 184 -61 298 -92 42 -11 52 -23 31 -36 -6 -3 -24 -27 -40 -52 -22
-34 -29 -58 -29 -94 0 -98 63 -142 205 -143 95 0 137 11 192 52 l32 23 23 -31
c40 -54 91 -73 188 -73 69 1 96 6 142 27 31 14 59 30 62 36 14 22 -15 19 -70
-7 -48 -22 -73 -27 -134 -27 -90 0 -127 14 -159 60 l-23 34 31 47 c22 34 31
59 31 89 0 49 -22 75 -48 59 -18 -12 -27 -42 -37 -126 -6 -54 -9 -59 -52 -87
-95 -63 -194 -74 -289 -32 -87 39 -93 124 -14 214 38 43 42 45 77 37 20 -5 41
-7 45 -4 14 9 9 22 -12 27 -11 3 -20 9 -20 14 0 15 94 53 133 53 26 0 37 4 37
15 0 29 -73 18 -155 -24 l-76 -40 -57 15 c-120 31 -287 83 -354 110 -73 30
-184 33 -217 7z m1000 -270 c-9 -16 -10 -15 -11 8 0 14 3 29 8 33 12 12 14
-22 3 -41z"></path>
<path d="M5437 1063 c-4 -3 -7 -19 -7 -34 0 -15 -13 -80 -30 -145 -51 -203
-51 -352 0 -205 39 109 118 219 180 251 60 31 122 27 164 -10 45 -40 58 -83
55 -175 -3 -75 4 -102 21 -75 13 20 12 146 0 192 -6 21 -26 53 -44 73 -32 34
-36 35 -105 35 -105 0 -168 -39 -227 -139 -10 -17 -21 -31 -25 -31 -7 0 12 96
31 160 19 65 11 128 -13 103z"></path>
<path d="M1708 971 c-64 -58 -108 -139 -108 -197 0 -67 66 -114 162 -114 77 0
168 63 198 138 7 17 16 32 21 32 12 0 47 -83 75 -179 27 -94 31 -185 10 -235
-20 -49 -81 -112 -130 -135 -53 -26 -185 -29 -230 -6 -15 8 -33 15 -38 15 -6
0 -37 17 -70 37 -71 44 -130 108 -161 175 -12 26 -25 48 -29 48 -39 0 22 -120
95 -186 30 -27 81 -62 113 -78 33 -16 68 -33 79 -39 37 -19 168 -21 223 -3 59
20 142 90 166 140 20 43 21 188 2 266 -29 116 -81 225 -107 225 -8 0 -23 -18
-34 -41 -51 -103 -107 -144 -195 -144 -63 0 -103 20 -120 60 -11 28 -10 36 19
95 34 68 119 155 152 155 10 0 34 -8 54 -17 42 -20 59 -9 26 18 -16 13 -39 19
-71 19 -44 0 -53 -5 -102 -49z"></path>
<path d="M5279 1000 c-41 -106 -93 -313 -88 -349 8 -54 25 -28 37 55 7 47 24
116 38 152 17 45 24 82 22 112 -2 25 -6 38 -9 30z"></path>
<path d="M1370 954 c0 -9 -14 -50 -30 -92 -34 -83 -36 -138 -8 -156 21 -13 36
0 20 16 -19 19 -14 69 13 126 25 54 33 122 15 122 -5 0 -10 -7 -10 -16z"></path>
</g>
</svg>